<svg xmlns="http://www.w3.org/2000/svg" height="30" viewBox="0 0 512.021 512.021" width="30"><path d="M496.02 367.6c0 36.62-15 68.72-38.49 91.66-33.43 32.66-84.04 46.78-133.02 28.98-139.43-50.65-250.08-161.3-300.73-300.73C-.939 119.48 35.9 48.31 98.49 24.39c14.13-5.4 29.58-8.39 45.93-8.39l.03.15 25.09 117.05-7.55 7.55-43.42 43.42C161.71 276 236.02 350.31 327.85 393.45l50.97-50.97z" fill="#ffb956" data-original="#ACEBE2" data-old_color="#acebe2"/><g fill="#98d7ce"><path d="M118.107 74.529c-3.544-16.537-20.051-26.87-36.48-22.858A126.365 126.365 0 0039.211 70.85C53.65 50.18 74.12 33.7 98.49 24.39c14.13-5.4 29.58-8.39 45.93-8.39l.03.15 25.09 117.05-7.55 7.55-24.45 24.45zM327.85 393.45l-16.692 16.692c-9.38 9.38-23.783 11.44-35.479 5.183-75.905-40.609-138.374-103.078-178.983-178.983-6.258-11.697-4.197-26.099 5.183-35.48l16.692-16.692C161.71 276 236.02 350.31 327.85 393.45zM496.02 367.6c0 36.62-15 68.72-38.49 91.66-5.08 4.96-10.56 9.5-16.36 13.56a126.533 126.533 0 0019.236-42.661c3.958-16.345-6.468-32.72-22.912-36.244L346.82 374.48l32-32z" data-original="#98D7CE" class="active-path" data-old_color="#98D7CE" fill="#ffb956"/></g><path d="M367.988 512.021c-16.528 0-32.916-2.922-48.941-8.744-70.598-25.646-136.128-67.416-189.508-120.795S34.389 263.572 8.744 192.974c-8.241-22.688-10.673-46.108-7.226-69.612 3.229-22.016 11.757-43.389 24.663-61.809 12.963-18.501 30.245-33.889 49.977-44.5C97.2 5.738 120.167 0 144.423 0a16.002 16.002 0 0115.645 12.647l25.114 117.199a16.004 16.004 0 01-4.331 14.667l-42.913 42.912c40.482 80.486 106.17 146.174 186.656 186.656l42.912-42.913a16.008 16.008 0 0114.667-4.331l117.199 25.114a16 16 0 0112.647 15.645c0 24.256-5.738 47.224-17.054 68.266-10.611 19.732-25.999 37.014-44.5 49.977-18.419 12.906-39.792 21.434-61.809 24.663a142.318 142.318 0 01-20.668 1.519zM131.639 32.7c-31.995 3.532-60.393 20.302-79.251 47.217-21.206 30.265-26.151 67.49-13.567 102.132C88.125 317.775 194.246 423.896 329.972 473.2c34.641 12.584 71.867 7.64 102.132-13.567 26.915-18.858 43.685-47.256 47.217-79.251l-95.341-20.43-44.816 44.816a15.998 15.998 0 01-18.117 3.168c-95.19-44.72-172.242-121.772-216.962-216.962a15.999 15.999 0 013.168-18.117l44.816-44.816zM496.02 272c-8.836 0-16-7.164-16-16 0-123.514-100.486-224-224-224-8.836 0-16-7.164-16-16s7.164-16 16-16c68.381 0 132.668 26.628 181.02 74.98S512.02 187.619 512.02 256c0 8.836-7.163 16-16 16z" data-original="#000000"/><path d="M432.02 272c-8.836 0-16-7.164-16-16 0-88.224-71.776-160-160-160-8.836 0-16-7.164-16-16s7.164-16 16-16c105.869 0 192 86.131 192 192 0 8.836-7.163 16-16 16z" data-original="#000000"/><path d="M368.02 272c-8.836 0-16-7.164-16-16 0-52.935-43.065-96-96-96-8.836 0-16-7.164-16-16s7.164-16 16-16c70.58 0 128 57.42 128 128 0 8.836-7.163 16-16 16z" data-original="#000000"/></svg>