<svg xmlns="http://www.w3.org/2000/svg" height="30" viewBox="0 0 511.937 511.937" width="30"><path d="M7.575 103.61h496.787v304.718H7.575z" fill="#ffb956" data-original="#FEC040" class="active-path" data-old_color="#fec040"/><path d="M464.362 107.801v296.121l40 4.405V103.61z" fill="#feb317" data-original="#FEB317"/><path d="M504.362 408.327L310.634 255.223H202.18L7.575 408.327z" fill="#fed682" data-original="#FED682"/><path d="M7.492 103.61l209.641 165.977c22.756 18.016 54.914 18.016 77.67 0L504.444 103.61z" fill="#fee8b8" data-original="#FEE8B8"/><path d="M504.362 323.321a7.5 7.5 0 007.5-7.5V104.676c.646-4.485-2.98-8.567-7.417-8.567H112.968c-9.674 0-9.674 15 0 15h369.92l-192.74 152.597c-20.125 15.933-48.234 15.933-68.359 0L29.048 111.11h44.883c9.674 0 9.674-15 0-15H7.492c-4.438 0-8.064 4.081-7.417 8.567v303.651c0 4.064 3.429 7.5 7.5 7.5h496.787c4.078 0 7.5-3.429 7.5-7.5v-54.359c0-9.674-15-9.674-15 0v38.872L323.88 256.132l172.982-136.953v196.642a7.5 7.5 0 007.5 7.5zm-315.887-66.858l-173.4 136.421V119.179zm294.301 144.364H29.237l171.329-134.791c16.679 13.205 33.034 24.635 55.402 24.635 22.59 0 39.001-11.651 55.826-24.971z" data-original="#000000"/></svg>